<svg width="20" height="20" viewBox="0 0 20 20" fill="none" xmlns="http://www.w3.org/2000/svg">
<path fill-rule="evenodd" clip-rule="evenodd" d="M9.85728 15.2351C12.8268 15.2351 15.2341 12.8278 15.2341 9.85826C15.2341 6.88872 12.8268 4.48145 9.85728 4.48145C6.88775 4.48145 4.48047 6.88872 4.48047 9.85826C4.48047 12.8278 6.88775 15.2351 9.85728 15.2351ZM9.85728 13.4428C11.8369 13.4428 13.4418 11.8379 13.4418 9.85826C13.4418 7.87857 11.8369 6.27372 9.85728 6.27372C7.87759 6.27372 6.27274 7.87857 6.27274 9.85826C6.27274 11.8379 7.87759 13.4428 9.85728 13.4428Z" fill="#F3F3F3"/>
<path d="M15.234 3.58496C14.7391 3.58496 14.3379 3.98618 14.3379 4.4811C14.3379 4.97601 14.7391 5.37723 15.234 5.37723C15.729 5.37723 16.1302 4.97601 16.1302 4.4811C16.1302 3.98618 15.729 3.58496 15.234 3.58496Z" fill="#F3F3F3"/>
<path fill-rule="evenodd" clip-rule="evenodd" d="M0.586037 2.93579C0 4.08596 0 5.59161 0 8.6029V11.1121C0 14.1234 0 15.629 0.586037 16.7791C1.10153 17.7909 1.92407 18.6134 2.93579 19.1289C4.08596 19.715 5.59161 19.715 8.6029 19.715H11.1121C14.1234 19.715 15.629 19.715 16.7791 19.1289C17.7909 18.6134 18.6134 17.7909 19.1289 16.7791C19.715 15.629 19.715 14.1234 19.715 11.1121V8.6029C19.715 5.59161 19.715 4.08596 19.1289 2.93579C18.6134 1.92407 17.7909 1.10153 16.7791 0.586037C15.629 0 14.1234 0 11.1121 0H8.6029C5.59161 0 4.08596 0 2.93579 0.586037C1.92407 1.10153 1.10153 1.92407 0.586037 2.93579ZM11.1121 1.79227H8.6029C7.06768 1.79227 6.02405 1.79367 5.21737 1.85957C4.4316 1.92377 4.02978 2.04013 3.74947 2.18296C3.07499 2.52663 2.52663 3.07499 2.18296 3.74947C2.04013 4.02978 1.92377 4.4316 1.85957 5.21737C1.79367 6.02405 1.79227 7.06768 1.79227 8.6029V11.1121C1.79227 12.6473 1.79367 13.6909 1.85957 14.4976C1.92377 15.2834 2.04013 15.6852 2.18296 15.9655C2.52663 16.64 3.07499 17.1883 3.74947 17.532C4.02978 17.6748 4.4316 17.7912 5.21737 17.8554C6.02405 17.9213 7.06768 17.9227 8.6029 17.9227H11.1121C12.6473 17.9227 13.6909 17.9213 14.4976 17.8554C15.2834 17.7912 15.6852 17.6748 15.9655 17.532C16.64 17.1883 17.1883 16.64 17.532 15.9655C17.6748 15.6852 17.7912 15.2834 17.8554 14.4976C17.9213 13.6909 17.9227 12.6473 17.9227 11.1121V8.6029C17.9227 7.06768 17.9213 6.02405 17.8554 5.21737C17.7912 4.4316 17.6748 4.02978 17.532 3.74947C17.1883 3.07499 16.64 2.52663 15.9655 2.18296C15.6852 2.04013 15.2834 1.92377 14.4976 1.85957C13.6909 1.79367 12.6473 1.79227 11.1121 1.79227Z" fill="#F3F3F3"/>
</svg>
